<svg width="28" height="28" viewBox="0 0 28 28" fill="none" xmlns="http://www.w3.org/2000/svg">
<g clip-path="url(#clip0_953_271)">
<path d="M28 14C28 21.7327 21.7327 28 14 28C6.26733 28 0 21.7327 0 14C0 6.26733 6.26733 0 14 0C21.7327 0 28 6.26733 28 14Z" fill="#334C8C"/>
<path d="M17.546 12.6735L17.3144 14.6209C17.2922 14.8081 17.1336 14.9508 16.9465 14.9476H14.9198V20.7328C14.9198 20.8756 14.8056 20.9929 14.6629 20.9961H12.5981C12.4522 20.9961 12.338 20.8756 12.3412 20.7297L12.3538 14.9476H10.8187C10.6157 14.9476 10.4508 14.7827 10.4508 14.5797V12.6323C10.4508 12.4293 10.6157 12.2643 10.8187 12.2643H12.3443V10.374C12.3443 8.18866 13.6447 6.99609 15.5509 6.99609H17.1114C17.3144 6.99609 17.4794 7.16102 17.4794 7.36401V9.00697C17.4794 9.20996 17.3144 9.37489 17.1114 9.37489H16.1567C15.1228 9.39075 14.9261 9.88554 14.9261 10.6277V12.258H17.1939C17.4127 12.2612 17.5808 12.4546 17.5523 12.6735H17.546Z" fill="white"/>
</g>
<defs>
<clipPath id="clip0_953_271">
<rect width="28" height="28" fill="white"/>
</clipPath>
</defs>
</svg>
