<svg width="28" height="28" viewBox="0 0 28 28" fill="none" xmlns="http://www.w3.org/2000/svg">
<g clip-path="url(#clip0_955_277)">
<path d="M28 13.9985C28 21.7292 21.7322 27.9969 14.0015 27.9969C6.27085 27.9969 0 21.7322 0 13.9985C0 6.26473 6.26779 0 13.9985 0C21.7292 0 27.9969 6.26779 27.9969 13.9985H28Z" fill="#0B69C7"/>
<path d="M10.8676 8.90863C10.8676 9.68292 10.4024 10.3807 9.6893 10.6776C8.97315 10.9744 8.15295 10.8092 7.60513 10.2644C7.05731 9.71658 6.89511 8.89332 7.19197 8.18024C7.48884 7.4641 8.18662 6.99891 8.96091 7.00197C10.0168 7.00197 10.8706 7.85889 10.8706 8.91169L10.8676 8.90863Z" fill="white"/>
<path d="M7.95093 11.6172H9.96164C10.2248 11.6172 10.436 11.8284 10.436 12.0916V20.5261C10.436 20.7893 10.2248 21.0005 9.96164 21.0005H7.95093C7.68773 21.0005 7.47656 20.7893 7.47656 20.5261V12.0916C7.47656 11.8284 7.68773 11.6172 7.95093 11.6172Z" fill="white"/>
<path d="M20.9519 16.4804V20.563C20.9519 20.8017 20.756 20.9976 20.5173 20.9976H18.3597C18.121 20.9976 17.9251 20.8017 17.9251 20.563V16.6059C17.9251 16.0152 18.0965 14.0259 16.3826 14.0259C15.0513 14.0259 14.782 15.3939 14.7239 16.006V20.5691C14.7177 20.8048 14.528 20.9915 14.2923 20.9945H12.2021C12.0858 20.9945 11.9756 20.9486 11.893 20.8691C11.8103 20.7864 11.7644 20.6763 11.7675 20.56V12.0489C11.7675 11.9326 11.8134 11.8224 11.893 11.7398C11.9756 11.6571 12.0858 11.6112 12.2021 11.6112H14.2923C14.4086 11.6112 14.5219 11.6541 14.6045 11.7367C14.6871 11.8193 14.7361 11.9295 14.7361 12.0489V12.7864C15.2288 12.0489 15.9633 11.4766 17.5242 11.4766C20.9733 11.4766 20.9549 14.7023 20.9549 16.4773L20.9519 16.4804Z" fill="white"/>
</g>
<defs>
<clipPath id="clip0_955_277">
<rect width="28" height="28" fill="white"/>
</clipPath>
</defs>
</svg>
