<svg width="28" height="28" viewBox="0 0 28 28" fill="none" xmlns="http://www.w3.org/2000/svg">
<g clip-path="url(#clip0_955_274)">
<path d="M28 14C28 21.7319 21.7319 28 14 28C6.26808 28 0 21.7319 0 14C0 6.26808 6.26808 0 14 0C21.7319 0 28 6.26808 28 14Z" fill="#00A6DE"/>
<path d="M20.9717 9.7623C20.6421 10.2582 20.2354 10.7035 19.7722 11.0806C19.6534 11.1786 19.5851 11.3271 19.5881 11.4815V11.526C19.5821 12.5237 19.398 13.5125 19.0477 14.4478C18.6824 15.4276 18.145 16.3332 17.4532 17.1171C16.5268 18.1712 15.3331 18.961 13.9999 19.4005C13.124 19.6855 12.2065 19.828 11.286 19.8221C9.82517 19.8221 8.38806 19.4361 7.12316 18.6997C7.03111 18.6463 6.98361 18.5394 7.01033 18.4355C7.03705 18.3345 7.1291 18.2603 7.23599 18.2632H7.58636C8.69686 18.2632 9.78361 17.9366 10.707 17.3161C9.58764 17.1349 8.66123 16.3421 8.31383 15.2613C8.27523 15.1455 8.37915 15.0297 8.49792 15.0565C8.6642 15.0891 8.83641 15.104 9.00566 15.104H9.07099C7.98424 14.6051 7.29538 13.5154 7.30725 12.3218C7.30725 12.203 7.43493 12.1258 7.54182 12.1822C7.75858 12.304 7.99018 12.393 8.23069 12.4495C7.25084 11.4815 7.04893 9.97311 7.74373 8.77948C7.80015 8.68446 7.93376 8.67258 8.00206 8.75869C9.34713 10.4215 11.3068 11.4726 13.4387 11.6656H13.4536C13.5189 11.6656 13.5694 11.6062 13.5635 11.5409C13.5219 11.1697 13.5456 10.7986 13.6347 10.4363C13.8752 9.43568 14.6235 8.63695 15.6063 8.32815C15.9151 8.23016 16.2387 8.18266 16.5624 8.17969C17.2988 8.17969 18.0084 8.44692 18.5607 8.93388C18.632 8.99623 18.724 9.03186 18.819 9.03186C18.8487 9.03186 18.8814 9.02592 18.9111 9.01998C19.4277 8.88934 19.9266 8.68446 20.3838 8.41129C20.5085 8.33409 20.6629 8.45583 20.6154 8.59538C20.461 9.0764 20.1878 9.51288 19.8226 9.86028C20.1522 9.78011 20.4759 9.67322 20.7876 9.53366C20.9272 9.48022 21.0578 9.63165 20.9806 9.7623H20.9717Z" fill="white"/>
</g>
<defs>
<clipPath id="clip0_955_274">
<rect width="28" height="28" fill="white"/>
</clipPath>
</defs>
</svg>
